<?xml version="1.0" standalone="no"?>
<!DOCTYPE svg PUBLIC "-//W3C//DTD SVG 20010904//EN"
 "http://www.w3.org/TR/2001/REC-SVG-20010904/DTD/svg10.dtd">
<svg version="1.0" xmlns="http://www.w3.org/2000/svg"
 width="532.000000pt" height="532.000000pt" viewBox="0 0 532.000000 532.000000"
 preserveAspectRatio="xMidYMid meet">
<metadata>
Created by potrace 1.14, written by Peter Selinger 2001-2017
</metadata>
<g transform="translate(0.000000,532.000000) scale(0.100000,-0.100000)"
fill="#000000" stroke="none">
<path d="M1482 4948 c-72 -97 -118 -211 -192 -473 -54 -190 -107 -314 -182
-425 -61 -90 -96 -107 -201 -102 -17 1 -41 14 -58 31 -34 35 -35 33 -10 -17
24 -46 97 -86 158 -87 24 0 43 -1 43 -2 0 -9 -96 -55 -140 -67 -47 -13 -50
-15 -22 -15 43 -1 121 18 150 37 44 29 20 -9 -103 -164 -143 -179 -185 -246
-215 -341 -33 -107 -38 -191 -25 -434 6 -98 5 -138 -4 -143 -25 -16 -58 -15
-97 5 -72 34 -98 120 -54 174 19 23 -63 -21 -87 -47 -27 -28 -42 -93 -32 -132
18 -67 105 -121 207 -130 24 -2 45 -6 47 -8 14 -13 -24 -84 -53 -100 -18 -10
-34 -18 -37 -18 -3 0 -20 0 -37 0 -25 0 -29 -3 -18 -10 8 -5 32 -7 52 -3 47 7
48 -4 6 -44 -73 -67 -129 -82 -168 -43 -11 11 -20 16 -20 10 0 -9 39 -49 49
-51 3 0 14 -2 23 -4 9 -2 36 1 60 7 24 5 56 11 72 13 15 3 38 7 50 11 24 8
108 63 118 78 4 6 9 8 12 5 13 -13 -60 -188 -105 -249 -26 -36 -108 -150 -182
-255 -352 -494 -407 -567 -449 -594 l-38 -24 0 -514 0 -513 94 0 c93 0 94 0
122 33 16 18 85 82 154 142 69 60 127 112 130 116 5 5 67 57 365 303 55 45
127 102 160 125 l60 42 9 -33 c17 -62 196 -603 204 -618 5 -8 15 -36 23 -63
l13 -47 813 0 813 0 1 23 c1 24 0 22 26 180 l17 107 27 -26 c16 -15 31 -39 34
-54 3 -15 20 -41 38 -57 18 -16 46 -45 62 -64 45 -51 99 -89 126 -89 14 0 30
-5 35 -10 7 -7 138 -9 372 -8 l362 3 -62 75 c-124 152 -228 298 -228 321 0 43
-46 124 -90 159 -24 20 -53 58 -69 89 -14 30 -35 59 -45 65 -46 26 -64 51 -69
99 -3 34 -14 60 -36 88 -17 21 -45 57 -62 78 -26 33 -33 55 -46 138 -8 54 -35
179 -59 278 -25 99 -63 257 -84 350 -22 94 -49 204 -60 245 -11 41 -20 79 -20
85 0 5 29 -20 65 -57 36 -36 65 -65 65 -63 0 1 -11 22 -25 47 -23 42 -47 178
-30 178 12 0 77 -48 90 -67 7 -11 33 -32 57 -49 23 -16 66 -54 94 -84 29 -30
67 -64 85 -75 l34 -19 -18 24 c-64 90 -70 110 -32 110 29 0 75 21 93 42 9 11
4 13 -26 10 -72 -7 -151 76 -185 194 -20 68 -9 82 31 40 40 -43 123 -97 186
-122 45 -18 51 -24 82 -89 19 -39 35 -89 37 -112 1 -23 5 -39 8 -35 12 14 43
119 48 166 6 49 6 49 46 53 86 8 165 56 165 101 0 13 -3 13 -19 -2 -25 -23
-100 -23 -148 0 -31 15 -40 27 -51 64 -8 25 -22 67 -33 93 -10 27 -15 47 -11
45 102 -53 195 -74 252 -58 19 6 45 10 58 10 37 0 88 28 101 56 18 39 13 47
-11 19 -13 -14 -33 -27 -45 -30 -23 -4 -26 0 -38 62 -8 38 -26 56 -19 19 6
-36 -25 -69 -57 -61 -39 10 -133 88 -178 147 -43 58 -105 176 -117 223 -6 26
-5 28 8 17 8 -6 84 -45 169 -85 158 -74 216 -110 280 -169 78 -72 73 -254 -9
-324 -15 -13 -22 -24 -17 -24 15 0 84 69 99 99 8 14 17 42 21 61 l7 34 20 -39
c34 -68 119 -145 159 -145 7 0 6 8 -5 23 -47 64 -81 169 -90 280 -4 52 -2 58
12 52 10 -4 47 -10 83 -12 66 -5 117 9 135 39 6 10 4 10 -7 2 -22 -17 -97 -6
-150 23 -55 29 -74 62 -83 141 -7 64 -21 129 -36 166 -9 25 -8 27 12 20 52
-16 168 -31 228 -29 85 3 138 19 175 51 l30 26 -34 -23 c-29 -19 -48 -23 -105
-23 -70 1 -169 22 -230 48 -17 7 -50 21 -72 31 -23 9 -66 42 -96 73 -58 60
-176 204 -205 250 -9 15 -34 48 -55 73 -21 26 -38 50 -38 54 0 7 25 4 130 -12
19 -3 45 -6 57 -8 11 -1 42 -14 67 -29 56 -33 99 -114 120 -231 l15 -80 -4 90
c-3 50 -9 105 -14 123 -12 39 -4 40 41 5 103 -82 172 -192 188 -298 l8 -50 1
69 c1 63 -3 76 -46 160 -25 50 -57 114 -71 141 -13 28 -35 62 -49 76 l-24 27
48 6 c84 13 126 29 166 68 l40 38 41 -24 c79 -47 166 -154 166 -203 0 -13 -11
-35 -25 -48 l-26 -23 34 8 c47 10 57 18 57 41 0 32 22 17 48 -33 17 -32 24
-63 24 -104 1 -47 3 -54 10 -35 13 36 12 140 -2 192 -26 95 -96 200 -199 296
-31 29 -51 53 -46 54 77 6 199 45 237 76 18 15 35 28 36 29 2 1 10 19 17 40
14 42 6 88 -21 114 -13 12 -13 9 2 -23 17 -35 17 -41 4 -65 -29 -53 -79 -67
-240 -69 -254 -3 -449 47 -653 167 -41 24 -74 46 -72 48 2 2 23 6 47 8 53 5
103 20 145 45 18 10 49 21 70 25 53 9 144 60 167 92 l19 27 -29 -25 c-34 -30
-96 -60 -124 -60 -24 0 -24 0 -5 36 21 42 18 81 -10 129 -18 31 -33 44 -56 49
-45 9 -69 8 -69 -4 0 -5 6 -7 14 -4 8 3 24 -4 36 -16 62 -62 -55 -203 -154
-185 -17 4 -38 7 -46 9 -71 12 -245 77 -328 123 -78 43 -264 170 -307 209 -22
20 -69 63 -104 95 l-63 59 -819 0 -818 0 -39 -52z m2279 -908 c67 -12 131 -18
189 -19 41 -1 48 -5 83 -48 20 -25 36 -48 34 -50 -6 -5 -144 32 -207 55 -202
75 -215 83 -99 62z m683 -41 c33 -13 61 -30 64 -37 7 -22 -81 -52 -163 -56
-85 -4 -102 4 -166 86 l-33 41 120 -5 c96 -4 131 -9 178 -29z m-1876 -1064 c3
-24 -10 -44 -28 -45 -3 0 -4 18 -2 40 5 46 25 50 30 5z"/>
<path d="M468 2488 c5 -5 16 -8 23 -6 8 3 3 7 -10 11 -17 4 -21 3 -13 -5z"/>
</g>
</svg>
